<svg width="9" height="14" viewBox="0 0 9 14" fill="none" xmlns="http://www.w3.org/2000/svg">
<path d="M7.99707 7L8.70418 7.70711C8.89171 7.51957 8.99707 7.26522 8.99707 7C8.99707 6.73478 8.89171 6.48043 8.70418 6.29289L7.99707 7ZM1.28996 12.2929C0.89944 12.6834 0.89944 13.3166 1.28996 13.7071C1.68049 14.0976 2.31365 14.0976 2.70418 13.7071L1.28996 12.2929ZM2.70418 0.292894C2.31365 -0.0976304 1.68049 -0.0976301 1.28996 0.292894C0.899438 0.683419 0.899438 1.31658 1.28996 1.70711L2.70418 0.292894ZM7.28996 6.29289L1.28996 12.2929L2.70418 13.7071L8.70418 7.70711L7.28996 6.29289ZM1.28996 1.70711L7.28996 7.70711L8.70418 6.29289L2.70418 0.292894L1.28996 1.70711Z" fill="#BDBDBD"/>
</svg>
