<svg width="375" height="812" viewBox="0 0 375 812" fill="none" xmlns="http://www.w3.org/2000/svg">
<rect width="375" height="812" fill="white"/>
<path d="M76.3802 531.808C76.1389 531.818 75.9013 531.746 75.7053 531.605C75.5093 531.463 75.3662 531.26 75.2987 531.028C73.8171 525.522 73.6116 521.187 74.639 517.362C75.1497 515.312 76.1315 513.411 77.506 511.81C78.8806 510.208 80.6097 508.951 82.5554 508.139C83.1353 505.984 84.2313 504.004 85.7481 502.371C87.2649 500.737 89.1568 499.499 91.2593 498.764C93.3619 498.03 95.6117 497.82 97.8133 498.155C100.015 498.489 102.102 499.357 103.893 500.683C104.032 500.754 104.155 500.855 104.251 500.979C104.348 501.103 104.417 501.246 104.453 501.399C104.488 501.551 104.491 501.71 104.46 501.864C104.428 502.018 104.364 502.163 104.271 502.29C104.178 502.416 104.059 502.521 103.922 502.597C103.784 502.672 103.632 502.717 103.476 502.728C103.32 502.739 103.163 502.716 103.016 502.661C102.87 502.605 102.737 502.518 102.627 502.406C100.802 501.104 98.6473 500.345 96.4107 500.217C94.1741 500.089 91.9468 500.596 89.9851 501.68C87.7015 503.024 85.9372 505.101 84.9779 507.575C88.6116 507.229 92.1264 509.103 93.3593 512.127C93.7119 513.103 93.8203 514.151 93.6751 515.179C93.53 516.207 93.1356 517.183 92.5266 518.023C92.0492 518.758 91.3899 519.358 90.6129 519.762C89.8359 520.167 88.9676 520.363 88.0925 520.331C84.5994 520.136 82.4148 516.592 82.0796 513.189C81.9985 512.357 81.9985 511.518 82.0796 510.686C79.3983 512.294 77.4559 514.894 76.6722 517.925C75.7313 521.361 75.9476 525.349 77.3211 530.464C77.3913 530.737 77.3526 531.027 77.2133 531.272C77.074 531.516 76.845 531.697 76.5749 531.776C76.511 531.792 76.4459 531.803 76.3802 531.808ZM84.3831 509.83C84.1851 510.865 84.1378 511.924 84.2425 512.972C84.4912 515.422 85.9837 518.077 88.2656 518.207C88.7816 518.212 89.2902 518.084 89.7427 517.835C90.1952 517.586 90.5766 517.226 90.8503 516.787C91.2593 516.243 91.5276 515.606 91.6314 514.933C91.7352 514.26 91.6712 513.571 91.4451 512.929C90.4177 510.404 87.2165 509.32 84.7292 509.765L84.3831 509.83Z" fill="#FDBC2C" fill-opacity="0.2"/>
<path d="M364.068 175C363.836 175.001 363.612 174.915 363.439 174.758C363.266 174.6 363.156 174.383 363.13 174.147C362.839 171.295 361.957 168.538 360.544 166.06C359.13 163.582 357.216 161.439 354.93 159.774C354.098 159.164 353.208 158.64 352.274 158.212C352.418 160.639 351.953 163.063 350.923 165.255C350.317 166.477 349.369 167.487 348.2 168.158C347.03 168.828 345.692 169.129 344.355 169.021C343.579 168.884 342.842 168.577 342.194 168.12C341.546 167.663 341.003 167.068 340.602 166.376C340.101 165.583 339.77 164.69 339.632 163.757C339.495 162.824 339.554 161.871 339.805 160.962C340.372 159.374 341.388 157.992 342.724 156.993C344.06 155.994 345.656 155.421 347.311 155.347C348.329 155.27 349.353 155.344 350.351 155.568C350.22 153.571 349.471 151.668 348.211 150.135C345.753 147.433 341.465 147.481 338.528 148.678C335.085 150.077 332.223 152.952 329.709 155.491C329.63 155.607 329.527 155.703 329.408 155.774C329.289 155.844 329.156 155.887 329.018 155.899C328.881 155.911 328.743 155.892 328.613 155.843C328.484 155.794 328.367 155.717 328.27 155.617C328.173 155.517 328.099 155.396 328.053 155.263C328.008 155.13 327.991 154.989 328.005 154.849C328.018 154.709 328.062 154.573 328.133 154.453C328.204 154.332 328.3 154.228 328.414 154.15C331.06 151.486 334.044 148.467 337.853 146.925C341.475 145.459 346.504 145.487 349.563 148.841C351.228 150.892 352.179 153.451 352.265 156.114C353.6 156.658 354.864 157.369 356.027 158.232C358.529 160.055 360.622 162.401 362.169 165.113C363.715 167.826 364.679 170.843 364.997 173.965C365.016 174.212 364.94 174.456 364.786 174.647C364.632 174.839 364.412 174.961 364.172 174.99L364.068 175ZM347.996 157.206H347.386C346.105 157.262 344.869 157.699 343.828 158.463C342.788 159.228 341.989 160.286 341.531 161.509C341.361 162.154 341.325 162.828 341.425 163.488C341.525 164.148 341.759 164.779 342.113 165.341C342.375 165.814 342.736 166.222 343.168 166.538C343.601 166.854 344.095 167.07 344.618 167.172C346.654 167.478 348.465 165.926 349.309 164.354C350.219 162.362 350.613 160.165 350.454 157.973C350.454 157.829 350.454 157.685 350.454 157.542C349.652 157.322 348.826 157.209 347.996 157.206Z" fill="#ED7279" fill-opacity="0.2"/>
<path d="M28.1223 406.766C28.0595 405.785 28.2485 404.804 28.6714 403.915C29.0942 403.027 29.737 402.26 30.539 401.688C32.0276 400.661 33.7163 399.959 35.495 399.628C37.2071 399.22 38.9457 398.933 40.6981 398.769C40.6881 396.864 40.2107 394.99 39.3077 393.311C38.191 391.368 36.5597 389.768 34.5923 388.689C32.625 387.609 30.3975 387.09 28.154 387.19C27.8795 387.202 27.6107 387.11 27.4019 386.932C27.1931 386.754 27.0599 386.503 27.0293 386.231C27.0172 385.957 27.1098 385.688 27.2884 385.48C27.467 385.272 27.7182 385.138 27.9913 385.108C30.6399 384.966 33.2753 385.564 35.601 386.835C37.9267 388.107 39.8504 390.001 41.1557 392.305C42.2086 394.255 42.7799 396.429 42.8219 398.645C45.3205 398.622 47.7953 399.128 50.0832 400.129C54.5673 402.129 58.4384 407.53 56.8588 412.774C56.7445 413.002 56.5532 413.182 56.3186 413.283C56.084 413.384 55.8212 413.4 55.5766 413.326C55.332 413.253 55.1213 413.095 54.9817 412.882C54.8421 412.668 54.7826 412.412 54.8137 412.159C56.0621 408.021 52.8792 403.673 49.215 402.069C47.1695 401.201 44.9595 400.786 42.7374 400.853C42.448 403.184 41.5781 405.406 40.207 407.316C39.5303 408.34 38.6464 409.211 37.6121 409.874C36.5778 410.536 35.416 410.975 34.2016 411.163C31.6714 411.453 28.5936 409.826 28.1817 406.999L28.1223 406.766ZM40.5489 400.985C39.014 401.142 37.4912 401.4 35.9906 401.759C34.5009 402.025 33.0811 402.592 31.8184 403.425C31.2948 403.783 30.8738 404.271 30.5968 404.841C30.3199 405.411 30.1966 406.044 30.2391 406.676C30.4995 408.279 32.3973 409.225 33.9395 409.07C34.8562 408.903 35.7291 408.551 36.5046 408.035C37.2802 407.519 37.942 406.85 38.4494 406.07C39.5493 404.553 40.2677 402.794 40.544 400.942L40.5489 400.985Z" fill="#62BEBB" fill-opacity="0.2"/>
<path d="M111.494 246C101.513 246 101.491 261 111.494 261C121.496 261 121.508 246 111.494 246Z" fill="#E7D9B4" fill-opacity="0.3"/>
<path d="M34.4958 138C24.5071 138 24.4958 153 34.4958 153C44.4958 153 44.5071 138 34.4958 138Z" fill="#62BEBB" fill-opacity="0.2"/>
<path d="M300.963 355.21H300.768C300.492 355.155 300.248 354.993 300.088 354.761C299.929 354.528 299.866 354.242 299.914 353.964C300.515 350.578 300.399 347.103 299.574 343.764C298.749 340.426 297.232 337.299 295.123 334.586C295.006 334.362 294.971 334.105 295.024 333.858C295.076 333.612 295.213 333.391 295.41 333.234C295.607 333.078 295.853 332.995 296.105 333C296.356 333.006 296.598 333.099 296.789 333.264C299.084 336.214 300.735 339.616 301.633 343.248C302.531 346.879 302.656 350.659 302.001 354.343C301.952 354.584 301.823 354.801 301.634 354.959C301.445 355.116 301.209 355.205 300.963 355.21Z" fill="#FFBDAD" fill-opacity="0.2"/>
<path d="M313.011 354.115C312.928 354.127 312.844 354.127 312.762 354.115C312.491 354.046 312.257 353.874 312.11 353.635C311.963 353.397 311.913 353.111 311.972 352.836C313.402 346.894 317.129 341.764 322.333 338.574C322.567 338.495 322.821 338.499 323.053 338.585C323.285 338.671 323.481 338.834 323.607 339.047C323.734 339.26 323.783 339.51 323.748 339.755C323.713 340 323.595 340.226 323.414 340.395C318.73 343.297 315.38 347.936 314.092 353.302C314.031 353.541 313.89 353.751 313.694 353.899C313.497 354.047 313.256 354.123 313.011 354.115Z" fill="#FFBDAD" fill-opacity="0.2"/>
<path d="M322.884 359.805C322.685 359.81 322.488 359.753 322.322 359.642C322.09 359.487 321.927 359.249 321.867 358.976C321.806 358.703 321.853 358.418 321.998 358.179C323.724 355.526 326.162 353.414 329.031 352.086C331.9 350.758 335.085 350.266 338.22 350.669C338.495 350.712 338.744 350.86 338.913 351.082C339.082 351.304 339.159 351.583 339.128 351.861C339.085 352.139 338.936 352.39 338.712 352.56C338.488 352.73 338.207 352.805 337.928 352.771C335.196 352.439 332.425 352.87 329.923 354.018C327.421 355.165 325.284 356.985 323.75 359.274C323.66 359.426 323.534 359.555 323.383 359.647C323.232 359.74 323.061 359.794 322.884 359.805Z" fill="#FFBDAD" fill-opacity="0.2"/>
</svg>
