<svg width="22" height="25" viewBox="0 0 22 25" fill="none" xmlns="http://www.w3.org/2000/svg">
<path d="M13.5607 1.12961C12.16 -0.265207 9.83997 -0.26521 8.43929 1.12961L1.59786 7.94237C1.20495 8.33364 0.940917 8.82828 0.839038 9.36398C0.00816792 13.7328 -0.0531632 18.2054 0.657622 22.5939L0.909271 24.1476C0.988755 24.6384 1.42712 25.0002 1.94225 25.0002H6.72274C7.11645 25.0002 7.43562 24.6924 7.43562 24.3128V14.6897H14.5644V24.3128C14.5644 24.6924 14.8835 25.0002 15.2772 25.0002H20.0577C20.5728 25.0002 21.0112 24.6384 21.0906 24.1476L21.3423 22.5939C22.0531 18.2054 21.9918 13.7328 21.1609 9.36397C21.059 8.82828 20.795 8.33364 20.4021 7.94238L13.5607 1.12961Z" fill="#121212"/>
</svg>
