<svg width="22" height="22" viewBox="0 0 22 22" fill="none" xmlns="http://www.w3.org/2000/svg">
<path d="M18.735 12.0184C18.7783 11.6934 18.8 11.3576 18.8 11.0001C18.8 10.6534 18.7783 10.3068 18.7241 9.98176L20.9233 8.2701C21.1183 8.11843 21.1725 7.82593 21.0533 7.60926L18.9733 4.0126C18.8433 3.77426 18.5725 3.69843 18.3341 3.77426L15.745 4.81426C15.2033 4.4026 14.6291 4.05593 13.99 3.79593L13.6 1.04426C13.5566 0.784264 13.34 0.600098 13.08 0.600098H8.91996C8.65996 0.600098 8.45412 0.784264 8.41079 1.04426L8.02079 3.79593C7.38162 4.05593 6.79662 4.41343 6.26579 4.81426L3.67662 3.77426C3.43829 3.6876 3.16746 3.77426 3.03746 4.0126L0.968289 7.60926C0.838289 7.83676 0.881623 8.11843 1.09829 8.2701L3.29746 9.98176C3.24329 10.3068 3.19996 10.6643 3.19996 11.0001C3.19996 11.3359 3.22162 11.6934 3.27579 12.0184L1.07662 13.7301C0.881623 13.8818 0.827456 14.1743 0.946623 14.3909L3.02662 17.9876C3.15662 18.2259 3.42746 18.3018 3.66579 18.2259L6.25496 17.1859C6.79662 17.5976 7.37079 17.9443 8.00996 18.2043L8.39996 20.9559C8.45412 21.2159 8.65996 21.4001 8.91996 21.4001H13.08C13.34 21.4001 13.5566 21.2159 13.5891 20.9559L13.9791 18.2043C14.6183 17.9443 15.2033 17.5976 15.7341 17.1859L18.3233 18.2259C18.5616 18.3126 18.8325 18.2259 18.9625 17.9876L21.0425 14.3909C21.1725 14.1526 21.1183 13.8818 20.9125 13.7301L18.735 12.0184ZM11 14.9001C8.85496 14.9001 7.09996 13.1451 7.09996 11.0001C7.09996 8.8551 8.85496 7.1001 11 7.1001C13.145 7.1001 14.9 8.8551 14.9 11.0001C14.9 13.1451 13.145 14.9001 11 14.9001Z" fill="#121212" fill-opacity="0.8"/>
</svg>
