<svg width="246" height="98" viewBox="0 0 246 98" fill="none" xmlns="http://www.w3.org/2000/svg">
<path fill-rule="evenodd" clip-rule="evenodd" d="M123.25 0.00994941C117.257 -0.215396 102.853 3.27973 92.5 21.5215C88.5136 28.5453 85.014 35.2912 81.7066 41.6667C64.9226 74.0199 53.0866 96.8352 7.6996 98.022H0C2.66965 98.0871 5.23412 98.0865 7.6996 98.022L123 98.022L123.5 98.022L238.303 98.022C240.767 98.0865 243.33 98.0871 246 98.022H238.303C193.2 96.8418 181.566 74.2717 165.037 42.203C161.669 35.6699 158.098 28.7425 154 21.5215C143.647 3.27993 129.243 -0.215318 123.25 0.00994941Z" fill="#FFB301"/>
</svg>
